<?xml version="1.0" encoding="utf-8"?>
<svg xmlns="http://www.w3.org/2000/svg" fill="none" height="100%" overflow="visible" preserveAspectRatio="none" style="display: block;" viewBox="0 0 32 32" width="100%">
<g id="BDLogo">
<rect fill="var(--fill-0, #F6F8F9)" height="32" rx="8" width="32"/>
<g id="Group 2801">
<path d="M15.0015 11.6844L15.3005 5.00007H16.7025L17.0015 11.6844L17.7238 11.9346L21.889 6.69634L23.0378 7.54448L19.3713 13.0817C18.2431 14.778 14.9008 13.8056 15.0015 11.6844Z" fill="var(--fill-0, #FF6772)" id="Vector"/>
<path d="M11.5839 15.6257L5.34775 13.2811L5.77263 11.9341L12.1834 13.7296L12.6555 13.1001L8.99217 7.49364L10.0937 6.69585L14.259 11.909C15.4753 13.4558 13.6043 16.3982 11.5839 15.6257Z" fill="var(--fill-0, #FF6772)" id="Vector_2"/>
<path d="M19.3418 18.9435L23.057 24.4808L21.9098 25.3289L17.7446 20.0906L16.9972 20.3392L16.6982 27H15.3009L15.0018 20.3392C14.9012 18.1945 18.1695 17.1717 19.3418 18.9435Z" fill="var(--fill-0, #FF6772)" id="Vector_3"/>
<path d="M19.8152 13.7295L26.2495 11.9341L26.6744 13.2811L20.4132 15.6256L20.4383 16.3982L26.6744 18.7177L26.2495 20.0645L19.79 18.2943C17.7444 17.7452 17.7696 14.3038 19.8152 13.7295Z" fill="var(--fill-0, #FF6772)" id="Vector_4"/>
<path d="M14.2526 20.1155L10.0873 25.3081L8.94016 24.46L12.657 18.9228L12.1849 18.2934L5.74896 20.0636L5.32569 18.7166L11.5854 16.3972C13.6043 15.6514 15.6011 18.4161 14.2526 20.1155Z" fill="var(--fill-0, #FF6772)" id="Vector_5"/>
</g>
</g>
</svg>