<?xml version="1.0" encoding="utf-8"?>
<svg xmlns="http://www.w3.org/2000/svg" fill="none" height="100%" overflow="visible" preserveAspectRatio="none" style="display: block;" viewBox="0 0 32 32" width="100%">
<g id="FactLogo">
<rect fill="var(--fill-0, white)" height="32" rx="6" width="32"/>
<path clip-rule="evenodd" d="M6.90875 9.89674L11.222 5.64635C11.4875 5.38491 11.1561 5.05811 10.8237 5.18883C10.426 5.25419 7.70471 6.03901 7.2401 6.16922C6.84237 6.23509 6.24502 6.69261 6.24502 7.08527V9.57045C6.24502 9.89674 6.57688 10.224 6.90875 9.89674ZM6.90875 15.7168C7.17424 15.39 16.9964 5.77706 17.4605 5.31955C17.9251 4.86152 17.4605 4.60009 17.0623 4.60009C16.664 4.60009 14.9389 4.66545 14.607 4.66545C14.4392 4.6795 14.276 4.72742 14.1272 4.8063C13.9792 4.88483 13.8485 4.99275 13.7441 5.12347C13.545 5.25368 6.77651 11.9244 6.64376 12.0556C6.51051 12.1869 6.24552 12.4468 6.24552 12.84V15.3246C6.24552 15.7173 6.57739 16.0441 6.90925 15.7168H6.90875ZM22.3052 5.51563C21.8406 5.38491 20.7123 5.0576 20.314 5.0576C19.9163 5.0576 19.6503 5.31904 19.5181 5.45027L6.90875 17.8747C6.69595 18.0044 6.52166 18.1883 6.40512 18.4067C6.28859 18.625 6.23286 18.8703 6.24502 19.117C6.24502 19.9018 6.37776 20.0979 6.44414 20.8174C6.51051 21.5368 7.10787 21.471 7.57248 21.0788L22.703 6.16973C22.969 5.90778 22.7698 5.64635 22.3052 5.51563ZM25.3579 9.6353C25.6232 9.35259 25.7663 8.97663 25.7561 8.58905V6.95404C25.7561 6.43117 25.026 6.10386 24.4287 6.62725L8.70081 22.1261C8.10397 22.7138 8.30308 23.1718 8.70081 23.4333C9.09905 23.6952 9.29868 23.9566 9.89553 24.2186C10.4934 24.4795 10.692 24.0874 10.8247 23.9566L25.3579 9.6353ZM24.8933 12.2512C24.5614 12.578 12.5499 24.3498 12.1512 24.8068C11.6866 25.2649 11.8862 25.5916 12.2176 25.7877C12.5494 25.9838 13.4786 26.5725 13.8769 26.5725C14.2751 26.5725 14.4079 26.5067 14.5406 26.3765L25.292 15.7821C25.4248 15.6514 25.6902 15.39 25.6902 14.9978V12.5132C25.7561 12.0551 25.3579 11.7937 24.8933 12.2512ZM25.026 18.0059C24.4287 18.5288 16.5977 26.3116 16.1989 26.6379C15.8007 27.0301 15.8007 27.5534 16.4644 27.3574C17.1281 27.0959 25.6892 23.5645 25.6892 19.9672V18.3975C25.6892 17.8093 25.3579 17.6132 25.026 18.0059Z" fill="var(--fill-0, #FE4B4B)" fill-rule="evenodd" id="Vector"/>
</g>
</svg>