<?xml version="1.0" encoding="utf-8"?>
<svg xmlns="http://www.w3.org/2000/svg" fill="none" height="100%" overflow="visible" preserveAspectRatio="none" style="display: block;" viewBox="0 0 32 32" width="100%">
<g clip-path="url(#clip0_0_459)" id="IndriveIcon">
<path d="M0 16C0 11.561 0 9.32504 0.612837 7.55279C1.73913 4.30642 4.2733 1.7557 7.51967 0.612837C9.30848 0 11.5114 0 15.9338 0C20.3561 0 22.5756 0 24.3478 0.612837C27.5777 1.73913 30.1284 4.28986 31.2546 7.55279C31.8675 9.3416 31.8675 11.561 31.8675 16C31.8675 20.439 31.8675 22.675 31.2546 24.4472C30.1284 27.6936 27.5942 30.2443 24.3478 31.3872C22.559 32 20.3561 32 15.9338 32C11.5114 32 9.29192 32 7.51967 31.3872C4.28986 30.2609 1.73913 27.7102 0.612837 24.4472C0 22.675 0 20.4555 0 16Z" fill="var(--fill-0, #C1F11D)" id="Vector"/>
<path d="M12.7091 12.7313H8.825V24.1449H12.7091V12.7313Z" fill="var(--fill-0, #141414)" id="Vector_2"/>
<path d="M17.5562 7.27969H14.4938V11.0909H17.4652C20.1815 11.0909 22.0597 13.0238 22.0597 15.6855C22.0597 18.3472 20.1815 20.3348 17.4652 20.3348H14.4938V24.1459H17.5562C22.3695 24.1459 25.9969 20.4623 25.9969 15.669C25.9969 10.8755 22.3695 7.283 17.5562 7.283V7.27969Z" fill="var(--fill-0, #141414)" id="Vector_3"/>
<path d="M12.7091 7.27969H8.825V11.0909H12.7091V7.27969Z" fill="var(--fill-0, #141414)" id="Vector_4"/>
</g>
<defs>
<clipPath id="clip0_0_459">
<rect fill="white" height="32" width="32"/>
</clipPath>
</defs>
</svg>