<?xml version="1.0" encoding="utf-8"?>
<svg xmlns="http://www.w3.org/2000/svg" fill="none" height="100%" overflow="visible" preserveAspectRatio="none" style="display: block;" viewBox="0 0 32 32" width="100%">
<g id="NetologyLogo">
<rect fill="var(--fill-0, white)" height="32" rx="8" width="32"/>
<g id="Group 2802">
<path d="M11.2907 16.4187C11.408 16.4187 11.5241 16.4247 11.639 16.4339C11.8897 18.4356 13.5186 20.0066 15.5462 20.17C15.5683 20.3468 15.5813 20.5266 15.5813 20.7094C15.5813 23.079 13.6603 25 11.2907 25C8.92102 25 7.00004 23.079 7.00002 20.7094C7.00002 18.3397 8.92101 16.4187 11.2907 16.4187Z" fill="var(--fill-0, black)" id="Vector"/>
<path d="M11.2907 7C13.6603 7 15.5813 8.92099 15.5813 11.2907C15.5813 11.4009 15.5751 11.5101 15.5669 11.6182C13.4591 11.7778 11.7778 13.4591 11.6182 15.5669C11.5101 15.5751 11.4009 15.5813 11.2907 15.5813C8.92099 15.5813 7 13.6603 7 11.2907C7.00002 8.921 8.921 7.00002 11.2907 7Z" fill="var(--fill-0, black)" id="Vector_2"/>
<path d="M20.7094 7.00002C23.079 7.00004 25 8.92102 25 11.2907C25 13.6603 23.079 15.5813 20.7094 15.5813C20.5266 15.5813 20.3468 15.5683 20.17 15.5462C20.0066 13.5186 18.4356 11.8897 16.4339 11.639C16.4247 11.5241 16.4187 11.408 16.4187 11.2907C16.4187 8.92101 18.3397 7.00002 20.7094 7.00002Z" fill="var(--fill-0, black)" id="Vector_3"/>
<path d="M20.7094 16.4187C23.079 16.4187 25 18.3397 25 20.7094C25 23.079 23.079 25 20.7094 25C18.3397 25 16.4187 23.079 16.4187 20.7094C16.4187 20.5189 16.4322 20.3315 16.4562 20.1476C18.3772 19.8968 19.8968 18.3772 20.1476 16.4562C20.3315 16.4322 20.5189 16.4187 20.7094 16.4187Z" fill="var(--fill-0, black)" id="Vector_4"/>
</g>
</g>
</svg>