<?xml version="1.0" encoding="utf-8"?>
<svg xmlns="http://www.w3.org/2000/svg" fill="none" height="100%" overflow="visible" preserveAspectRatio="none" style="display: block;" viewBox="0 0 32 32" width="100%">
<g id="Frame 32">
<g id="RaifIcon">
<rect fill="var(--fill-0, #FFE500)" height="32" rx="8" width="32"/>
<path d="M20.1952 14.5399V11.6784L21.2065 10.6434V13.1288L22.0868 14.0281L25.6251 10.4105L26.5 11.3061C26.4942 10.6276 26.362 8.67366 24.7417 7.04534C22.9935 5.32366 21.1057 6.10037 20.4594 6.76038L16.9237 10.3785L17.8257 11.3012L16.0006 13.1684L14.1748 11.3012L15.0768 10.3785L11.5406 6.75984C10.8949 6.09983 9.00655 5.32312 7.25831 7.0448C5.63795 8.67311 5.50743 10.6271 5.5 11.3034L6.37332 10.4105L9.91171 14.0308L10.7919 13.1314V10.6455L11.8032 11.6806V14.5426L13.2309 16.0011L6.22423 23.1695L8.99275 26L16.0006 18.8327L23.0041 26L25.7731 23.1695L18.7674 16.0011L20.1952 14.5399Z" fill="var(--fill-0, #2B2D33)" id="Vector"/>
</g>
</g>
</svg>